<mxfile host="app.diagrams.net" modified="2022-04-28T01:06:16.283Z" agent="5.0 (Macintosh; Intel Mac OS X 10_15_7) AppleWebKit/537.36 (KHTML, like Gecko) Chrome/100.0.4896.127 Safari/537.36" etag="XPONGopSCWyU2TwFBKcA" version="17.4.6" type="github">
  <diagram id="HdwV8_Cup6Nkt_tZjga0" name="第 1 页">
    <mxGraphModel dx="1186" dy="519" grid="1" gridSize="10" guides="1" tooltips="1" connect="1" arrows="1" fold="1" page="1" pageScale="1" pageWidth="827" pageHeight="1169" math="0" shadow="0">
      <root>
        <mxCell id="0" />
        <mxCell id="1" parent="0" />
        <mxCell id="OKLaM2sgYupRVQMNLWVb-7" value="" style="edgeStyle=orthogonalEdgeStyle;rounded=0;sketch=1;orthogonalLoop=1;jettySize=auto;html=1;" edge="1" parent="1" source="OKLaM2sgYupRVQMNLWVb-1" target="OKLaM2sgYupRVQMNLWVb-6">
          <mxGeometry relative="1" as="geometry" />
        </mxCell>
        <mxCell id="OKLaM2sgYupRVQMNLWVb-1" value="需求评审" style="rounded=0;whiteSpace=wrap;html=1;sketch=1;fillColor=#ffe6cc;strokeColor=#d79b00;" vertex="1" parent="1">
          <mxGeometry x="60" y="150" width="110" height="40" as="geometry" />
        </mxCell>
        <mxCell id="OKLaM2sgYupRVQMNLWVb-9" value="" style="edgeStyle=orthogonalEdgeStyle;rounded=0;sketch=1;orthogonalLoop=1;jettySize=auto;html=1;" edge="1" parent="1" source="OKLaM2sgYupRVQMNLWVb-6" target="OKLaM2sgYupRVQMNLWVb-8">
          <mxGeometry relative="1" as="geometry" />
        </mxCell>
        <mxCell id="OKLaM2sgYupRVQMNLWVb-6" value="预估工作量" style="rounded=0;whiteSpace=wrap;html=1;sketch=1;fillColor=#ffe6cc;strokeColor=#d79b00;" vertex="1" parent="1">
          <mxGeometry x="230" y="150" width="110" height="40" as="geometry" />
        </mxCell>
        <mxCell id="OKLaM2sgYupRVQMNLWVb-11" value="" style="edgeStyle=orthogonalEdgeStyle;rounded=0;sketch=1;orthogonalLoop=1;jettySize=auto;html=1;" edge="1" parent="1" source="OKLaM2sgYupRVQMNLWVb-8" target="OKLaM2sgYupRVQMNLWVb-10">
          <mxGeometry relative="1" as="geometry" />
        </mxCell>
        <mxCell id="OKLaM2sgYupRVQMNLWVb-8" value="立项" style="rounded=0;whiteSpace=wrap;html=1;sketch=1;fillColor=#ffe6cc;strokeColor=#d79b00;" vertex="1" parent="1">
          <mxGeometry x="400" y="150" width="110" height="40" as="geometry" />
        </mxCell>
        <mxCell id="OKLaM2sgYupRVQMNLWVb-13" value="" style="edgeStyle=orthogonalEdgeStyle;rounded=0;sketch=1;orthogonalLoop=1;jettySize=auto;html=1;" edge="1" parent="1" source="OKLaM2sgYupRVQMNLWVb-10" target="OKLaM2sgYupRVQMNLWVb-12">
          <mxGeometry relative="1" as="geometry" />
        </mxCell>
        <mxCell id="OKLaM2sgYupRVQMNLWVb-10" value="开发" style="rounded=0;whiteSpace=wrap;html=1;sketch=1;fillColor=#ffe6cc;strokeColor=#d79b00;" vertex="1" parent="1">
          <mxGeometry x="570" y="150" width="110" height="40" as="geometry" />
        </mxCell>
        <mxCell id="OKLaM2sgYupRVQMNLWVb-15" value="" style="edgeStyle=orthogonalEdgeStyle;rounded=0;sketch=1;orthogonalLoop=1;jettySize=auto;html=1;" edge="1" parent="1" source="OKLaM2sgYupRVQMNLWVb-12" target="OKLaM2sgYupRVQMNLWVb-14">
          <mxGeometry relative="1" as="geometry" />
        </mxCell>
        <mxCell id="OKLaM2sgYupRVQMNLWVb-12" value="拆分任务" style="rounded=0;whiteSpace=wrap;html=1;sketch=1;fillColor=#ffe6cc;strokeColor=#d79b00;" vertex="1" parent="1">
          <mxGeometry x="740" y="150" width="110" height="40" as="geometry" />
        </mxCell>
        <mxCell id="OKLaM2sgYupRVQMNLWVb-14" value="feature" style="rounded=0;whiteSpace=wrap;html=1;sketch=1;fillColor=#ffe6cc;strokeColor=#d79b00;" vertex="1" parent="1">
          <mxGeometry x="910" y="150" width="110" height="40" as="geometry" />
        </mxCell>
      </root>
    </mxGraphModel>
  </diagram>
</mxfile>
